# xmcd
#
# Track frame offsets:
#	150
#	16411
#	28979
#	47878
#	67529
#	81590
#	96501
#	107151
#	124172
#	139551
#	159690
#	174677
#
# Disc length: 2555 seconds
#
# Revision: 2
# Processed by: cddbd v1.5.2PL0 Copyright (c) Steve Scherf et al.
# Submitted via: audiograbber 1.83.01
#
DISCID=a609f90c
DTITLE=Claudia Asselin - Toi Qui Cherche
DYEAR=1900
DGENRE=Country
TTITLE0=Toi Qui Cherche(Claudia Asselin-Claudia Asselin)
TTITLE1=Les Soeurs Asselin(Claudia Asselin-Claudia Asselin)
TTITLE2=J'ai Entendu Mon Père Pleurer(Claudia Asselin-Claudia Asselin)
TTITLE3=Réveilles-Toi Réveilles-Toi(Marie-Rolande Cyr-Claudia Asselin)
TTITLE4=Soleil Tu N'es Plus(Claudia Asselin-Claudia Asselin)
TTITLE5=La Vie C'est Du Rodéo(Claudia Asselin-Claudia Asselin)
TTITLE6=Madame Martin(Claudia Asselin-Gerry Bribosia)
TTITLE7=L'amour Aveugle(Claudia Asselin-Claudia Asselin)
TTITLE8=Je Pars Vers Mon Pays(Claudia Asselin-Claudia Asselin)
TTITLE9=Laissez-Moi Faire(Blackburn,Claudia Asselin-Claudia Asselin)
TTITLE10=Bonus-Toi Qui Cherche(Claudia Asselin-Claudia Asselin)
TTITLE11=Bonus-J'ai Entendu Mon Père Pleurer(Claudia Asselin-Claudia Asselin)
EXTD=
EXTT0=
EXTT1=
EXTT2=
EXTT3=
EXTT4=
EXTT5=
EXTT6=
EXTT7=
EXTT8=
EXTT9=
EXTT10=
EXTT11=
PLAYORDER=
